<?xml version="1.0" encoding="utf-8"?>
<!-- Generator: Adobe Illustrator 19.0.0, SVG Export Plug-In . SVG Version: 6.00 Build 0)  -->
<svg version="1.1" id="Layer_1" xmlns="http://www.w3.org/2000/svg" xmlns:xlink="http://www.w3.org/1999/xlink" x="0px" y="0px"
	 viewBox="0 0 937 378" style="enable-background:new 0 0 937 378;" xml:space="preserve">
<style type="text/css">
	.st0{fill:none;stroke:#11F46D;stroke-width:6;stroke-linecap:round;stroke-miterlimit:10;}
	.st1{fill:none;stroke:#11F46D;stroke-width:6;stroke-miterlimit:10;}
</style>
<path id="Bells" class="st0" d="M234.3,209.3c-2.4,73.6-14.2,102.5-29.8,102.6c-15.9,0.1-29.2-26.3-30.2-128.2
	c-0.9-88.8,16.8-134.5,33.2-130.6c14.1,3.4,24.9,37.6,26.9,103.7 M207,53h-40.7c-16.9,0-34.3,42.2-33.4,130.9
	c1,101.9,15.8,132.1,31.7,132.1h33.5l6.6-4.2 M143,81h-20c-13.3,0-26.9,33-26.2,102.6c0.8,79.8,12.4,103.4,24.8,103.4H143 M102,117
	H88.5c-8.6,0-17.5,21.2-17.1,66.6c0.2,20.9,1.5,35.9,3.6,46.3c3.1,15.6,7.8,21.1,12.6,21.1H102 M71,160H59c-3,0-6.2,8-6,23.9
	c0.2,18.3,2.8,24.1,5.7,24.1H71 M98,230H81 M81.3,230.1c0,0-5.3,5.8-2.3,13 M135,251h-28 M107,250.8c0,0-4,3.8-2.6,13 M179,271h-34
	 M144.9,271.4c0,0-4,3.8-2.6,13 M199.8,190.1c-0.2-43.4,3.5-65.7,6.9-63.8 M206.1,252.8c-3.3,0-6.1-12.9-6.3-62.7 M210.5,208.2
	c-0.6,33.2-1.3,44.6-4.4,44.6 M206.7,126.3c2.2,1.3,2.4,11.3,3.3,30.4 M697.9,156.4c2-65.8,12.9-100,26.9-103.3
	c16.4-3.9,34.1,41.8,33.2,130.6c-1,101.9-14.3,128.3-30.2,128.2c-15.6-0.1-27.4-29.1-29.8-103 M728,311.8l6.2,4.2h33.5
	c15.9,0,30.7-30.2,31.7-132.1C800.3,95.2,782.9,53,766,53h-40 M789,287h21.7c12.4,0,24.1-23.6,24.8-103.4
	C836.2,114,822.6,81,809.4,81H789 M831,251h13.7c4.9,0,9.5-5.6,12.6-21.2c2.1-10.4,3.4-25.3,3.6-46.2c0.4-45.4-8.4-66.7-17.1-66.7
	H831 M862,208h11.6c2.9,0,5.5-5.8,5.7-24.1c0.2-15.9-3-23.9-6-23.9H862 M851,230h-17 M853.3,243.1c3-7.2-2.3-13-2.3-13 M825,251h-27
	 M827.8,263.7c1.5-9.1-2.6-13-2.6-13 M788,271h-35 M790,284.3c1.5-9.1-2.6-13-2.6-13 M725.6,126.3c3.4-1.9,7.1,20.4,6.9,63.8
	 M732.6,190.1c-0.2,49.8-3,62.7-6.3,62.7 M726.3,252.8c-3.1,0-3.7-12.5-4.4-43.9 M722.1,157.9c0.9-21.4,1.1-30.3,3.5-31.6"/>
<path id="Bar" class="st1" d="M203,158h526 M203,191h530 M733,208H200"/>
</svg>
